<svg width="236" height="95" viewBox="0 0 236 95" fill="none" xmlns="http://www.w3.org/2000/svg">
<path d="M151.332 61.174V16.3352H159.417V32.5685C162.155 29.958 165.682 28.5101 169.407 28.5101C178.149 28.5101 185.904 35.1789 185.904 45.226C185.904 55.273 178.149 61.9638 169.407 61.9638C165.485 61.9638 161.782 60.4062 159.022 57.5763V61.174H151.332ZM177.819 45.226C177.819 39.6101 173.832 35.6835 168.618 35.6835C163.536 35.6835 159.614 39.4127 159.417 44.8311V45.226C159.417 50.8417 163.404 54.7684 168.618 54.7684C173.832 54.7684 177.819 50.8417 177.819 45.226ZM189.65 61.174V16.3352H197.734V61.174H189.65ZM209.039 72.8005L213.749 61.547L200.954 29.2999H209.696L217.845 51.8289L226.126 29.2999H235L217.648 72.8224H209.039V72.8005ZM138.494 29.2999V33.3581C135.69 30.287 131.768 28.5321 127.737 28.5321C118.996 28.5321 111.24 35.201 111.24 45.2479C111.24 55.3168 118.996 61.9638 127.737 61.9638C131.922 61.9638 135.887 60.143 138.757 56.8745V61.1959H145.812V29.2999H138.494ZM137.706 45.226C137.706 50.776 133.718 54.7684 128.504 54.7684C123.29 54.7684 119.302 50.776 119.302 45.226C119.302 39.676 123.29 35.6835 128.504 35.6835C133.587 35.6835 137.508 39.4786 137.706 44.8311V45.226Z" fill="white"/>
<path d="M44.3408 12L9.74772 75.3974L3 70.6591L35.0079 12H44.3408ZM44.8227 12L79.4159 75.3974L86.1636 70.6591L54.1556 12H44.8227Z" fill="url(#paint0_linear)"/>
<path d="M78.9338 75.7703L44.5818 48.8319L10.2297 75.7703L17.2404 80.6842L44.5818 59.2519L71.9233 80.6842L78.9338 75.7703Z" fill="url(#paint1_linear)"/>
<defs>
<linearGradient id="paint0_linear" x1="44.5819" y1="12" x2="9.42533" y2="73.7381" gradientUnits="userSpaceOnUse">
<stop stop-color="#FF0902"/>
<stop offset="1" stop-color="#FF5215"/>
</linearGradient>
<linearGradient id="paint1_linear" x1="44.5819" y1="12" x2="9.42533" y2="73.7381" gradientUnits="userSpaceOnUse">
<stop stop-color="#FF0902"/>
<stop offset="1" stop-color="#FF5215"/>
</linearGradient>
</defs>
</svg>
