<svg id="Layer_1" data-name="Layer 1" xmlns="http://www.w3.org/2000/svg" viewBox="0 0 236 94.6"><defs><style>.cls-1{fill:#ed760a;}.cls-2{fill:#f9a01b;}.cls-3{fill:#fff;}</style></defs><title>ably_logo_col</title><path class="cls-1" d="M33.6,27.5A33.6,33.6,0,1,0,67.1,61,33.6,33.6,0,0,0,33.6,27.5Zm0,48.5A14.9,14.9,0,1,1,48.5,61,14.9,14.9,0,0,1,33.6,76Z"/><path class="cls-2" d="M20.6,25l-1.3.3A3.7,3.7,0,0,1,15.8,23h0l-6-12.8H9.9a3.7,3.7,0,0,1-.4-1.7,3.8,3.8,0,0,1,2.1-3.3A48,48,0,0,1,65.8,83.6H65.4a0.5,0.5,0,0,1-.5-0.5,0.6,0.6,0,0,1,.1-0.3A38.4,38.4,0,0,0,20.6,25"/><path class="cls-3" d="M127.9,43.5V42.8c0-2-.8-3.5-6.7-3.5a37.5,37.5,0,0,0-6.4.6c-3.3.5-4-.4-4.6-3.5V35.6a15.2,15.2,0,0,1-.3-2.1c0-1.9.9-2.5,3.8-3.1a75.2,75.2,0,0,1,11.4-.8c11.8,0,15.4,2.8,15.6,12.7V57.6c0,3.5-.6,4.5-4.4,5.4a50.4,50.4,0,0,1-11.6,1.3c-8.5,0-16.6-2.3-16.6-10.6V52.2c0-6.4,4.6-9.9,12.3-9.9A26,26,0,0,1,127.9,43.5Zm-6.6,9.7c0,1.8,1.3,2.8,4.2,2.8l2.4-.3V51.6a5.7,5.7,0,0,0-3.4-.9c-2.2,0-3.2.9-3.2,2.2v0.3Z"/><path class="cls-3" d="M180.4,45.2v1c0,14.2-9.5,18.1-19.8,18.1a50.1,50.1,0,0,1-11.4-1.3c-2.3-.7-3.7-1.9-3.7-4.8V20.5c0-2.7,1.1-3.8,3.8-3.8h5.1c2.7,0,3.8,1.1,3.8,3.8V32.1a18,18,0,0,1,9-2.5C175.3,29.6,180.4,35.3,180.4,45.2Zm-13.3.7c0-3.9-1.6-6-5.2-6a8.1,8.1,0,0,0-3.9.9V54.4a11.2,11.2,0,0,0,2.5.3c3.6,0,6.6-2.5,6.6-7.9V45.9Z"/><path class="cls-3" d="M201.1,59.2c0.1,3.1-.6,3.7-3.3,4.2a23.2,23.2,0,0,1-4,.4c-5.9,0-9.3-2.7-9.3-11.8V21.1c0-3.1,1.3-4.4,4.4-4.4h3.8c3.1,0,4.4,1.3,4.4,4.4V51.9c0,1.8.2,2.2,1.1,2.2h0.6c1.7,0,2.1,1.6,2.2,3.5v1.5Z"/><path class="cls-3" d="M219.8,53.1A41,41,0,0,0,224,35.5V34.7c0-3.1,1.3-4.4,4.4-4.4h3.2c3.1,0,4.4,1.3,4.4,4.4v0.8c0,16.9-8,26.4-19.7,40.9a3.1,3.1,0,0,1-2.5,1.5,4.3,4.3,0,0,1-2.8-1.3l-2.2-1.8c-1.5-1.2-2.1-2.3-2.1-3.2a2.7,2.7,0,0,1,.9-2c1.5-1.6,3.7-3.9,5.4-6.1-2.9-3.9-9.4-18-11.4-29.2-0.6-3-.1-4.2,4-4.2h4.9c3.3,0,3.8,2.5,4.1,4.4a134.1,134.1,0,0,0,4.4,16.9Z"/></svg>