<svg id="Layer_1" data-name="Layer 1" xmlns="http://www.w3.org/2000/svg" xmlns:xlink="http://www.w3.org/1999/xlink" viewBox="0 0 254.4 500.4"><defs><style>.cls-1{fill:#b1b3b4;stroke:#d9dadb;stroke-width:0.38px;}.cls-1,.cls-7{stroke-miterlimit:10;}.cls-2{fill:#eceded;}.cls-3{fill:#d9dadb;}.cls-4{fill:url(#linear-gradient);}.cls-5{fill:url(#radial-gradient);}.cls-6{fill:url(#linear-gradient-2);}.cls-7{stroke:#ccc;stroke-width:0.5px;fill:url(#linear-gradient-3);}.cls-8{opacity:0.75;}.cls-9{fill:#fff;}</style><linearGradient id="linear-gradient" x1="97.16" y1="85.91" x2="156.26" y2="405.86" gradientUnits="userSpaceOnUse"><stop offset="0" stop-color="#f1d3c2"/><stop offset="1" stop-color="#dabe9f"/></linearGradient><radialGradient id="radial-gradient" cx="188.26" cy="28.65" r="3.87" gradientUnits="userSpaceOnUse"><stop offset="0" stop-color="#003652"/><stop offset="0.14" stop-color="#023651"/><stop offset="0.2" stop-color="#09344b"/><stop offset="0.23" stop-color="#143142"/><stop offset="0.26" stop-color="#252e35"/><stop offset="0.27" stop-color="#2d2c2f"/><stop offset="0.65" stop-color="#373739"/><stop offset="0.67" stop-color="#3b3b3d"/><stop offset="0.73" stop-color="#3d3d3f"/><stop offset="0.82" stop-color="#424145"/><stop offset="0.99" stop-color="#414045"/></radialGradient><linearGradient id="linear-gradient-2" x1="127.2" y1="31.14" x2="127.2" y2="26.17" gradientUnits="userSpaceOnUse"><stop offset="0" stop-color="#b0b2b3"/><stop offset="0.15" stop-color="#8a8b8d"/><stop offset="0.31" stop-color="#68686a"/><stop offset="0.48" stop-color="#4d4c4f"/><stop offset="0.65" stop-color="#39393b"/><stop offset="0.82" stop-color="#2e2d30"/><stop offset="0.99" stop-color="#2a292c"/></linearGradient><linearGradient id="linear-gradient-3" x1="127.14" y1="476.98" x2="127.14" y2="456.3" gradientUnits="userSpaceOnUse"><stop offset="0" stop-color="#fff"/><stop offset="0.02" stop-color="#fdfdfd"/><stop offset="0.4" stop-color="#e2e2e2"/><stop offset="0.74" stop-color="#d2d2d2"/><stop offset="1" stop-color="#ccc"/></linearGradient></defs><title>device_03</title><path class="cls-1" d="M217.8,500.2a36.3,36.3,0,0,0,36.3-36.3V36.5A36.3,36.3,0,0,0,217.9.2H36.6A36.3,36.3,0,0,0,.3,36.5V463.9a36.3,36.3,0,0,0,36.3,36.3H217.8Z"/><path class="cls-2" d="M251.3,463.9a33.5,33.5,0,0,1-33.5,33.5H36.5A33.5,33.5,0,0,1,3,463.9V36.5A33.5,33.5,0,0,1,36.6,3H217.9a33.5,33.5,0,0,1,33.5,33.5V463.9Z"/><path class="cls-2" d="M36.5,495.7A31.8,31.8,0,0,1,4.7,463.9V36.5A31.8,31.8,0,0,1,36.6,4.7H217.9a31.8,31.8,0,0,1,31.8,31.8V463.9a31.8,31.8,0,0,1-31.8,31.8H36.5Z"/><path class="cls-3" d="M217.9,5.1a31.4,31.4,0,0,1,31.4,31.4V463.9a31.4,31.4,0,0,1-31.4,31.4H36.5A31.4,31.4,0,0,1,5.1,463.9V36.5A31.4,31.4,0,0,1,36.6,5.1H217.9m0-.9H36.6A32.2,32.2,0,0,0,4.4,36.5V463.9a32.2,32.2,0,0,0,32.2,32.2H217.8A32.2,32.2,0,0,0,250,463.9V36.5A32.2,32.2,0,0,0,217.9,4.3h0Z"/><polygon class="cls-4" points="243.8 444.9 10.5 444.9 10.5 51.4 243.7 51.4 243.8 444.9"/><circle class="cls-5" cx="188.3" cy="28.7" r="3.9"/><path class="cls-6" d="M80.3,31.1a2.7,2.7,0,0,1-2.9-2.5,2.7,2.7,0,0,1,2.9-2.5h93.9a2.7,2.7,0,0,1,2.9,2.5,2.7,2.7,0,0,1-2.9,2.5H80.3Z"/><rect class="cls-7" x="82.4" y="459.7" width="89.4" height="20.56" rx="4" ry="4"/><g class="cls-8"><path class="cls-9" d="M117.7,221.9a43.9,43.9,0,1,0,43.9,43.9A43.9,43.9,0,0,0,117.7,221.9Zm0,63.4a19.5,19.5,0,1,1,19.5-19.5A19.5,19.5,0,0,1,117.7,285.3Z"/><path class="cls-9" d="M100.7,218.5a5.8,5.8,0,0,1-1.8.3,4.9,4.9,0,0,1-4.5-2.9h0l-7.8-16.8v0.2a4.8,4.8,0,0,1-.5-2.2,5,5,0,0,1,2.7-4.4,62.8,62.8,0,0,1,70.9,102.4h0l-0.4.2a0.6,0.6,0,0,1-.6-0.6,0.8,0.8,0,0,1,.1-0.4,50.2,50.2,0,0,0-58.2-75.9"/></g></svg>