<svg id="Layer_1" data-name="Layer 1" xmlns="http://www.w3.org/2000/svg" xmlns:xlink="http://www.w3.org/1999/xlink" viewBox="0 0 234.3 500.4"><defs><style>.cls-1{fill:#b1b3b4;stroke:#d9dadb;stroke-width:0.38px;}.cls-1,.cls-7{stroke-miterlimit:10;}.cls-2{fill:#87888a;}.cls-3{fill:#eceded;}.cls-4{fill:#d9dadb;}.cls-5{fill:url(#linear-gradient);}.cls-6{fill:url(#linear-gradient-2);}.cls-7{fill:none;stroke:#c6c7c8;stroke-width:1.66px;}.cls-8{fill:#707173;}.cls-9{fill:url(#radial-gradient);}.cls-10{fill:url(#linear-gradient-3);}.cls-11{fill:url(#linear-gradient-4);}.cls-12{opacity:0.75;}.cls-13{fill:#fff;}</style><linearGradient id="linear-gradient" x1="607.31" y1="253.62" x2="651.54" y2="253.62" gradientTransform="translate(-136.6 1091.6) rotate(-90)" gradientUnits="userSpaceOnUse"><stop offset="0" stop-color="#fff"/><stop offset="0.02" stop-color="#fdfdfd"/><stop offset="0.4" stop-color="#e2e2e2"/><stop offset="0.74" stop-color="#d2d2d2"/><stop offset="1" stop-color="#ccc"/></linearGradient><linearGradient id="linear-gradient-2" x1="90.31" y1="103.18" x2="143.12" y2="389.07" gradientUnits="userSpaceOnUse"><stop offset="0" stop-color="#f1d3c2"/><stop offset="1" stop-color="#dabe9f"/></linearGradient><radialGradient id="radial-gradient" cx="117.15" cy="29.66" r="3.87" gradientUnits="userSpaceOnUse"><stop offset="0" stop-color="#003652"/><stop offset="0.14" stop-color="#023651"/><stop offset="0.2" stop-color="#09344b"/><stop offset="0.23" stop-color="#143142"/><stop offset="0.26" stop-color="#252e35"/><stop offset="0.27" stop-color="#2d2c2f"/><stop offset="0.65" stop-color="#373739"/><stop offset="0.67" stop-color="#3b3b3d"/><stop offset="0.73" stop-color="#3d3d3f"/><stop offset="0.82" stop-color="#424145"/><stop offset="0.99" stop-color="#414045"/></radialGradient><linearGradient id="linear-gradient-3" x1="117.15" y1="49.98" x2="117.15" y2="40.03" gradientUnits="userSpaceOnUse"><stop offset="0" stop-color="#f2f2f2"/><stop offset="0.28" stop-color="#ededed"/><stop offset="1" stop-color="#e6e6e6"/></linearGradient><linearGradient id="linear-gradient-4" x1="117.16" y1="47.49" x2="117.16" y2="42.52" gradientUnits="userSpaceOnUse"><stop offset="0" stop-color="#b0b2b3"/><stop offset="0.15" stop-color="#8a8b8d"/><stop offset="0.31" stop-color="#68686a"/><stop offset="0.48" stop-color="#4d4c4f"/><stop offset="0.65" stop-color="#39393b"/><stop offset="0.82" stop-color="#2e2d30"/><stop offset="0.99" stop-color="#2a292c"/></linearGradient></defs><title>device_01</title><path class="cls-1" d="M197.7,500.2A36.3,36.3,0,0,0,234,463.9V36.5A36.3,36.3,0,0,0,197.8.2H36.6A36.3,36.3,0,0,0,.3,36.5V463.9a36.3,36.3,0,0,0,36.3,36.3H197.7Z"/><rect class="cls-2" x="76" y="0.2" width="2.2" height="10"/><rect class="cls-2" x="0.1" y="442.1" width="234.2" height="2.84"/><path class="cls-3" d="M231.2,463.9a33.5,33.5,0,0,1-33.5,33.5H36.5A33.5,33.5,0,0,1,3,463.9V36.5A33.5,33.5,0,0,1,36.6,3H197.8a33.5,33.5,0,0,1,33.5,33.5V463.9Z"/><path class="cls-3" d="M36.5,495.7A31.8,31.8,0,0,1,4.7,463.9V36.5A31.8,31.8,0,0,1,36.6,4.7H197.8a31.8,31.8,0,0,1,31.8,31.8V463.9a31.8,31.8,0,0,1-31.8,31.8H36.5Z"/><path class="cls-4" d="M197.8,5.1a31.4,31.4,0,0,1,31.4,31.4V463.9a31.4,31.4,0,0,1-31.4,31.4H36.5A31.4,31.4,0,0,1,5.1,463.9V36.5A31.4,31.4,0,0,1,36.6,5.1H197.8m0-.9H36.6A32.2,32.2,0,0,0,4.4,36.5V463.9a32.2,32.2,0,0,0,32.2,32.2H197.7a32.2,32.2,0,0,0,32.2-32.2V36.5A32.2,32.2,0,0,0,197.8,4.3h0Z"/><circle class="cls-4" cx="117" cy="462.2" r="23"/><path class="cls-5" d="M117,440.1a22.1,22.1,0,1,1-22.1,22.1A22.1,22.1,0,0,1,117,440.1Z"/><polygon class="cls-6" points="216.6 424.8 17.5 424.8 17.5 71.5 216.6 71.5 216.6 424.8"/><path class="cls-7" d="M124.6,467.7a2.1,2.1,0,0,1-2.1,2.1h-11a2.1,2.1,0,0,1-2.1-2.1v-11a2.1,2.1,0,0,1,2.1-2.1h11a2.1,2.1,0,0,1,2.1,2.1v11Z"/><circle class="cls-8" cx="85.6" cy="45" r="2.1"/><circle class="cls-9" cx="117.2" cy="29.7" r="3.9"/><path class="cls-10" d="M98.8,50a5,5,0,0,1,0-10h36.7a5,5,0,0,1,0,10H98.8Z"/><path class="cls-11" d="M100.3,47.5a2.5,2.5,0,1,1,0-5H134a2.5,2.5,0,1,1,0,5H100.3Z"/><g class="cls-12"><path class="cls-13" d="M107.6,222.9a43.9,43.9,0,1,0,43.9,43.9A43.9,43.9,0,0,0,107.6,222.9Zm0,63.4a19.5,19.5,0,1,1,19.5-19.5A19.5,19.5,0,0,1,107.6,286.3Z"/><path class="cls-13" d="M90.6,219.5a5.8,5.8,0,0,1-1.8.3,4.9,4.9,0,0,1-4.5-2.9h0l-7.8-16.8v0.2a4.8,4.8,0,0,1-.5-2.2,5,5,0,0,1,2.7-4.4,62.8,62.8,0,0,1,70.9,102.4h0l-0.4.2a0.6,0.6,0,0,1-.6-0.6,0.8,0.8,0,0,1,.1-0.4,50.2,50.2,0,0,0-58.2-75.9"/></g></svg>