<svg id="Layer_1" data-name="Layer 1" xmlns="http://www.w3.org/2000/svg" viewBox="0 0 90 56.1"><defs><style>.cls-1{fill:#333;}</style></defs><title>icon_eye</title><path class="cls-1" d="M44.8,16.6c20.6,0,32.3,14.5,44.4,27.3a2.7,2.7,0,0,1,.1,3.9c-10,11.6-24.2,24.9-44.5,24.9S10.1,59.3.7,47.6a2.9,2.9,0,0,1,0-3.7C11.2,31.5,24.2,16.6,44.8,16.6Zm0,5.8c-17.3,0-28.9,12.6-38,23.4,8.6,10.2,20.5,21.1,38,21.1s29.1-10.8,38.3-21C72.7,34.7,62.1,22.4,44.8,22.4Z" transform="translate(0 -16.6)"/><path class="cls-1" d="M45,58.7a14,14,0,1,1,14-14A14,14,0,0,1,45,58.7Zm0-25.1A11.1,11.1,0,1,0,56,44.7,11.1,11.1,0,0,0,45,33.6Z" transform="translate(0 -16.6)"/></svg>