<svg id="Layer_1" data-name="Layer 1" xmlns="http://www.w3.org/2000/svg" viewBox="0 0 89.5 77.9"><defs><style>.cls-1{fill:#333;}</style></defs><title>icon_lob_phone</title><path class="cls-1" d="M51.9,6.9L24.8,22.5A6.2,6.2,0,0,0,22.5,31L51.3,80.9a6.2,6.2,0,0,0,8.4,2.3L86.9,67.5A6.2,6.2,0,0,0,89.2,59L60.4,9.1A6.2,6.2,0,0,0,51.9,6.9ZM85.4,61.2a1.8,1.8,0,0,1-.7,2.5L57.6,79.3a1.8,1.8,0,0,1-2.5-.7L26.3,28.8a1.8,1.8,0,0,1,.7-2.5L54.1,10.7a1.8,1.8,0,0,1,2.5.6Z" transform="translate(-0.5 -6)"/><path class="cls-1" d="M51.7,19.6L35.9,28.7h0a4,4,0,0,0-1.5,5.4L53.4,67a4,4,0,0,0,5.4,1.4l15.8-9.1a4,4,0,0,0,1.5-5.4l-19-32.9A4,4,0,0,0,51.7,19.6ZM74.2,55a1.8,1.8,0,0,1-.7,2.5L57.8,66.6a1.8,1.8,0,0,1-2.5-.6l-19-32.8a1.8,1.8,0,0,1,.7-2.5l15.8-9.1a1.8,1.8,0,0,1,2.5.6Z" transform="translate(-0.5 -6)"/><path class="cls-1" d="M39.9,23.9l5.7-3.3a1.1,1.1,0,1,0-1.1-1.9L38.8,22A1.1,1.1,0,0,0,39.9,23.9Z" transform="translate(-0.5 -6)"/><circle class="cls-1" cx="69" cy="67.7" r="2.2" transform="translate(-25.1 37.5) rotate(-30)"/><path class="cls-1" d="M6.7,60.6A2.5,2.5,0,0,1,5.4,56l16-9.2a2.5,2.5,0,1,1,2.5,4.3l-16,9.2A2.5,2.5,0,0,1,6.7,60.6Z" transform="translate(-0.5 -6)"/><path class="cls-1" d="M3,75.4a2.5,2.5,0,0,1-1.2-4.7L27.4,56.7a2.5,2.5,0,1,1,2.4,4.4L4.2,75.1A2.5,2.5,0,0,1,3,75.4Z" transform="translate(-0.5 -6)"/><path class="cls-1" d="M18.7,80.6A2.5,2.5,0,0,1,17.4,76l16-9.2a2.5,2.5,0,1,1,2.5,4.3l-16,9.2A2.5,2.5,0,0,1,18.7,80.6Z" transform="translate(-0.5 -6)"/></svg>