<svg id="Layer_1" data-name="Layer 1" xmlns="http://www.w3.org/2000/svg" viewBox="0 0 90 72"><defs><style>.cls-1{fill:#333;}</style></defs><title>icon_tick</title><path class="cls-1" d="M74.8,15a3,3,0,0,1,2.1.9l6.3,6.2a2.9,2.9,0,0,1,0,4.2L35.5,74.2a2.9,2.9,0,0,1-2.1.8H32.9a2.9,2.9,0,0,1-2.1-.8L6.9,49.8a2.9,2.9,0,0,1,0-4.2l6.3-6.2a3,3,0,0,1,4.2,0L33.2,55.2,72.7,15.9a3,3,0,0,1,2.1-.9M26.6,78.4A8.9,8.9,0,0,0,32.9,81h0.5a8.9,8.9,0,0,0,6.3-2.6L87.4,30.5a8.9,8.9,0,0,0,0-12.7l-6.3-6.2A8.9,8.9,0,0,0,74.8,9h0a8.9,8.9,0,0,0-6.3,2.6L33.2,46.7,21.6,35.2a9,9,0,0,0-12.7,0L2.6,41.4a8.9,8.9,0,0,0,0,12.7Z" transform="translate(0 -9)"/></svg>