<svg width="236" height="95" viewBox="0 0 236 95" fill="none" xmlns="http://www.w3.org/2000/svg">
<path d="M150.332 63.174V18.3352H158.417V34.5685C161.155 31.958 164.682 30.5101 168.407 30.5101C177.149 30.5101 184.904 37.1789 184.904 47.226C184.904 57.273 177.149 63.9638 168.407 63.9638C164.485 63.9638 160.782 62.4062 158.022 59.5763V63.174H150.332ZM176.819 47.226C176.819 41.6101 172.832 37.6835 167.618 37.6835C162.536 37.6835 158.614 41.4127 158.417 46.8311V47.226C158.417 52.8417 162.404 56.7684 167.618 56.7684C172.832 56.7684 176.819 52.8417 176.819 47.226ZM188.65 63.174V18.3352H196.734V63.174H188.65ZM208.039 74.8005L212.749 63.547L199.954 31.2999H208.696L216.845 53.8289L225.126 31.2999H234L216.648 74.8224H208.039V74.8005ZM137.494 31.2999V35.3581C134.69 32.287 130.768 30.5321 126.737 30.5321C117.996 30.5321 110.24 37.201 110.24 47.2479C110.24 57.3168 117.996 63.9638 126.737 63.9638C130.922 63.9638 134.887 62.143 137.757 58.8745V63.1959H144.812V31.2999H137.494ZM136.706 47.226C136.706 52.776 132.718 56.7684 127.504 56.7684C122.29 56.7684 118.302 52.776 118.302 47.226C118.302 41.676 122.29 37.6835 127.504 37.6835C132.587 37.6835 136.508 41.4786 136.706 46.8311V47.226Z" fill="black"/>
<path d="M43.3408 14L8.74772 77.3974L2 72.6591L34.0079 14H43.3408ZM43.8227 14L78.4159 77.3974L85.1636 72.6591L53.1556 14H43.8227Z" fill="url(#paint0_linear)"/>
<path d="M77.9338 77.7703L43.5818 50.8319L9.2297 77.7703L16.2404 82.6842L43.5818 61.2519L70.9233 82.6842L77.9338 77.7703Z" fill="url(#paint1_linear)"/>
<defs>
<linearGradient id="paint0_linear" x1="43.5819" y1="14" x2="8.42533" y2="75.7381" gradientUnits="userSpaceOnUse">
<stop stop-color="#FF0902"/>
<stop offset="1" stop-color="#FF5215"/>
</linearGradient>
<linearGradient id="paint1_linear" x1="43.5819" y1="14" x2="8.42533" y2="75.7381" gradientUnits="userSpaceOnUse">
<stop stop-color="#FF0902"/>
<stop offset="1" stop-color="#FF5215"/>
</linearGradient>
</defs>
</svg>
