<svg width="235" height="501" viewBox="0 0 235 501" fill="none" xmlns="http://www.w3.org/2000/svg">
<g clip-path="url(#clip0)">
<path d="M197.7 500.2C207.327 500.2 216.56 496.375 223.368 489.568C230.176 482.76 234 473.527 234 463.9V36.5C234 26.8899 230.189 17.672 223.403 10.8673C216.617 4.06256 207.41 0.226425 197.8 0.199951H36.6C26.9727 0.199951 17.7396 4.0244 10.9321 10.832C4.1245 17.6395 0.300049 26.8726 0.300049 36.5V463.9C0.300049 473.527 4.1245 482.76 10.9321 489.568C17.7396 496.375 26.9727 500.2 36.6 500.2H197.7Z" fill="#B1B3B4" stroke="#D9DADB" stroke-width="0.38" stroke-miterlimit="10"/>
<path d="M78.2 0.199951H76V10.2H78.2V0.199951Z" fill="#87888A"/>
<path d="M234.3 442.1H0.100098V444.94H234.3V442.1Z" fill="#87888A"/>
<path d="M231.2 463.9C231.2 472.785 227.671 481.306 221.388 487.588C215.106 493.87 206.585 497.4 197.7 497.4H36.5C27.6152 497.4 19.0944 493.87 12.8119 487.588C6.52945 481.306 3 472.785 3 463.9V36.4999C2.99998 32.0922 3.86979 27.7278 5.55957 23.6569C7.24935 19.5859 9.72589 15.8885 12.8473 12.7764C15.9686 9.66433 19.6734 7.19882 23.7494 5.52118C27.8254 3.84354 32.1923 2.98675 36.6 2.99991H197.8C206.685 2.99991 215.206 6.52936 221.488 12.8118C227.771 19.0943 231.3 27.6152 231.3 36.4999V463.9H231.2Z" fill="#ECEDED"/>
<path d="M36.5 495.7C32.3239 495.7 28.1888 494.878 24.3306 493.279C20.4725 491.681 16.9669 489.339 14.014 486.386C11.0611 483.433 8.71868 479.928 7.12058 476.069C5.52248 472.211 4.69995 468.076 4.69995 463.9V36.5001C4.69993 32.3156 5.52576 28.1723 7.13011 24.3076C8.73446 20.4429 11.0858 16.9329 14.0493 13.9787C17.0128 11.0245 20.5302 8.68418 24.3999 7.09198C28.2696 5.49977 32.4155 4.68695 36.6 4.70011H197.8C201.976 4.70011 206.111 5.52264 209.969 7.12074C213.827 8.71884 217.333 11.0612 220.286 14.0141C223.239 16.967 225.581 20.4726 227.179 24.3308C228.777 28.1889 229.6 32.3241 229.6 36.5001V463.9C229.6 468.076 228.777 472.211 227.179 476.069C225.581 479.928 223.239 483.433 220.286 486.386C217.333 489.339 213.827 491.681 209.969 493.279C206.111 494.878 201.976 495.7 197.8 495.7H36.5Z" fill="#ECEDED"/>
<path d="M197.8 5.09995C206.128 5.09995 214.115 8.40816 220.003 14.2968C225.892 20.1854 229.2 28.1722 229.2 36.5V463.9C229.2 472.228 225.892 480.214 220.003 486.103C214.115 491.992 206.128 495.3 197.8 495.3H36.5001C28.1723 495.3 20.1855 491.992 14.2969 486.103C8.40826 480.214 5.10006 472.228 5.10006 463.9V36.5C5.10004 32.368 5.91552 28.2767 7.49977 24.4606C9.08402 20.6444 11.4059 17.1784 14.3322 14.2614C17.2586 11.3443 20.7319 9.03348 24.5531 7.46137C28.3743 5.88927 32.4681 5.08679 36.6001 5.09995H197.8ZM197.8 4.19995H36.6001C32.3631 4.19993 28.1677 5.03611 24.2545 6.66056C20.3413 8.28501 16.7871 10.6658 13.7958 13.6664C10.8044 16.6671 8.43468 20.2286 6.82238 24.1468C5.21007 28.0651 4.3869 32.263 4.40006 36.5V463.9C4.40006 472.44 7.79255 480.63 13.8312 486.669C19.8699 492.707 28.0601 496.1 36.6001 496.1H197.7C206.24 496.1 214.43 492.707 220.469 486.669C226.508 480.63 229.9 472.44 229.9 463.9V36.5C229.9 27.9773 226.521 19.8022 220.504 13.7664C214.487 7.73059 206.323 4.32642 197.8 4.29995V4.29995V4.19995Z" fill="#D9DADB"/>
<path d="M117 485.2C129.703 485.2 140 474.903 140 462.2C140 449.497 129.703 439.2 117 439.2C104.297 439.2 94 449.497 94 462.2C94 474.903 104.297 485.2 117 485.2Z" fill="#D9DADB"/>
<path d="M117 440.1C121.371 440.1 125.644 441.396 129.278 443.825C132.912 446.253 135.745 449.705 137.418 453.743C139.09 457.781 139.528 462.225 138.675 466.512C137.823 470.799 135.718 474.736 132.627 477.827C129.536 480.918 125.598 483.023 121.311 483.875C117.024 484.728 112.581 484.291 108.543 482.618C104.504 480.945 101.053 478.113 98.6244 474.478C96.196 470.844 94.8999 466.571 94.8999 462.2C94.8999 456.339 97.2283 450.718 101.373 446.573C105.517 442.428 111.139 440.1 117 440.1V440.1Z" fill="url(#paint0_linear)"/>
<path d="M216.6 424.8H17.5V71.5H216.6V424.8Z" fill="url(#paint1_linear)"/>
<path d="M124.6 467.7C124.6 468.257 124.379 468.791 123.985 469.185C123.591 469.579 123.057 469.8 122.5 469.8H111.5C110.943 469.8 110.409 469.579 110.015 469.185C109.621 468.791 109.4 468.257 109.4 467.7V456.7C109.4 456.143 109.621 455.609 110.015 455.215C110.409 454.821 110.943 454.6 111.5 454.6H122.5C123.057 454.6 123.591 454.821 123.985 455.215C124.379 455.609 124.6 456.143 124.6 456.7V467.7Z" stroke="#C6C7C8" stroke-width="1.66" stroke-miterlimit="10"/>
<path d="M85.6 47.0999C86.7598 47.0999 87.7 46.1597 87.7 44.9999C87.7 43.8401 86.7598 42.8999 85.6 42.8999C84.4402 42.8999 83.5 43.8401 83.5 44.9999C83.5 46.1597 84.4402 47.0999 85.6 47.0999Z" fill="#707173"/>
<path d="M117.2 33.6C119.354 33.6 121.1 31.854 121.1 29.7001C121.1 27.5461 119.354 25.8 117.2 25.8C115.046 25.8 113.3 27.5461 113.3 29.7001C113.3 31.854 115.046 33.6 117.2 33.6Z" fill="url(#paint2_radial)"/>
<path d="M98.8 50C97.474 50 96.2022 49.4732 95.2645 48.5355C94.3268 47.5979 93.8 46.3261 93.8 45C93.8 43.6739 94.3268 42.4021 95.2645 41.4645C96.2022 40.5268 97.474 40 98.8 40H135.5C136.826 40 138.098 40.5268 139.036 41.4645C139.973 42.4021 140.5 43.6739 140.5 45C140.5 46.3261 139.973 47.5979 139.036 48.5355C138.098 49.4732 136.826 50 135.5 50H98.8Z" fill="url(#paint3_linear)"/>
<path d="M100.3 47.5C99.637 47.5 99.0011 47.2366 98.5323 46.7678C98.0634 46.2989 97.8 45.663 97.8 45C97.8 44.337 98.0634 43.7011 98.5323 43.2322C99.0011 42.7634 99.637 42.5 100.3 42.5H134C134.663 42.5 135.299 42.7634 135.768 43.2322C136.237 43.7011 136.5 44.337 136.5 45C136.5 45.663 136.237 46.2989 135.768 46.7678C135.299 47.2366 134.663 47.5 134 47.5H100.3Z" fill="url(#paint4_linear)"/>
<path d="M116.49 173L43.2803 305.916L29 295.982L96.7388 173H116.49ZM117.51 173L190.72 305.916L205 295.982L137.261 173H117.51Z" fill="#F4E7DD"/>
<path d="M189.699 306.698L117 250.22L44.3003 306.698L59.137 317L117 272.066L174.863 317L189.699 306.698Z" fill="#F4E7DD"/>
</g>
<defs>
<linearGradient id="paint0_linear" x1="117.02" y1="484.29" x2="117.02" y2="440.06" gradientUnits="userSpaceOnUse">
<stop stop-color="white"/>
<stop offset="0.02" stop-color="#FDFDFD"/>
<stop offset="0.4" stop-color="#E2E2E2"/>
<stop offset="0.74" stop-color="#D2D2D2"/>
<stop offset="1" stop-color="#CCCCCC"/>
</linearGradient>
<linearGradient id="paint1_linear" x1="90.31" y1="103.18" x2="143.12" y2="389.07" gradientUnits="userSpaceOnUse">
<stop stop-color="#F1D3C2"/>
<stop offset="1" stop-color="#DABE9F"/>
</linearGradient>
<radialGradient id="paint2_radial" cx="0" cy="0" r="1" gradientUnits="userSpaceOnUse" gradientTransform="translate(117.15 29.66) scale(3.87)">
<stop stop-color="#003652"/>
<stop offset="0.14" stop-color="#023651"/>
<stop offset="0.2" stop-color="#09344B"/>
<stop offset="0.23" stop-color="#143142"/>
<stop offset="0.26" stop-color="#252E35"/>
<stop offset="0.27" stop-color="#2D2C2F"/>
<stop offset="0.65" stop-color="#373739"/>
<stop offset="0.67" stop-color="#3B3B3D"/>
<stop offset="0.73" stop-color="#3D3D3F"/>
<stop offset="0.82" stop-color="#424145"/>
<stop offset="0.99" stop-color="#414045"/>
</radialGradient>
<linearGradient id="paint3_linear" x1="117.15" y1="49.98" x2="117.15" y2="40.03" gradientUnits="userSpaceOnUse">
<stop stop-color="#F2F2F2"/>
<stop offset="0.28" stop-color="#EDEDED"/>
<stop offset="1" stop-color="#E6E6E6"/>
</linearGradient>
<linearGradient id="paint4_linear" x1="117.16" y1="47.49" x2="117.16" y2="42.52" gradientUnits="userSpaceOnUse">
<stop stop-color="#B0B2B3"/>
<stop offset="0.15" stop-color="#8A8B8D"/>
<stop offset="0.31" stop-color="#68686A"/>
<stop offset="0.48" stop-color="#4D4C4F"/>
<stop offset="0.65" stop-color="#39393B"/>
<stop offset="0.82" stop-color="#2E2D30"/>
<stop offset="0.99" stop-color="#2A292C"/>
</linearGradient>
<clipPath id="clip0">
<rect width="234.3" height="500.4" fill="white"/>
</clipPath>
</defs>
</svg>
