<svg width="255" height="501" viewBox="0 0 255 501" fill="none" xmlns="http://www.w3.org/2000/svg">
<g clip-path="url(#clip0)">
<path d="M217.8 500.2C227.427 500.2 236.66 496.375 243.468 489.568C250.276 482.76 254.1 473.527 254.1 463.9V36.5C254.1 26.8899 250.289 17.672 243.503 10.8673C236.717 4.06256 227.51 0.226425 217.9 0.199951H36.6C26.9727 0.199951 17.7396 4.0244 10.9321 10.832C4.1245 17.6395 0.300049 26.8726 0.300049 36.5V463.9C0.300049 473.527 4.1245 482.76 10.9321 489.568C17.7396 496.375 26.9727 500.2 36.6 500.2H217.8Z" fill="#B1B3B4" stroke="#D9DADB" stroke-width="0.38" stroke-miterlimit="10"/>
<path d="M251.3 463.9C251.3 472.785 247.771 481.306 241.488 487.588C235.206 493.87 226.685 497.4 217.8 497.4H36.5C27.6152 497.4 19.0944 493.87 12.8119 487.588C6.52945 481.306 3 472.785 3 463.9V36.4999C2.99998 32.0922 3.86979 27.7278 5.55957 23.6569C7.24935 19.5859 9.72589 15.8885 12.8473 12.7764C15.9686 9.66433 19.6734 7.19882 23.7494 5.52118C27.8254 3.84354 32.1923 2.98675 36.6 2.99991H217.9C226.785 2.99991 235.306 6.52936 241.588 12.8118C247.871 19.0943 251.4 27.6152 251.4 36.4999V463.9H251.3Z" fill="#ECEDED"/>
<path d="M36.5 495.7C32.3239 495.7 28.1888 494.878 24.3306 493.279C20.4725 491.681 16.9669 489.339 14.014 486.386C11.0611 483.433 8.71868 479.928 7.12058 476.069C5.52248 472.211 4.69995 468.076 4.69995 463.9V36.5001C4.69993 32.3156 5.52576 28.1723 7.13011 24.3076C8.73446 20.4429 11.0858 16.9329 14.0493 13.9787C17.0128 11.0245 20.5302 8.68418 24.3999 7.09198C28.2696 5.49977 32.4155 4.68695 36.6 4.70011H217.9C226.334 4.70011 234.422 8.05046 240.386 14.0141C246.35 19.9778 249.7 28.0662 249.7 36.5001V463.9C249.7 468.076 248.877 472.211 247.279 476.069C245.681 479.928 243.339 483.433 240.386 486.386C237.433 489.339 233.927 491.681 230.069 493.279C226.211 494.878 222.076 495.7 217.9 495.7H36.5Z" fill="#ECEDED"/>
<path d="M217.9 5.09995C226.228 5.09995 234.215 8.40816 240.103 14.2968C245.992 20.1854 249.3 28.1722 249.3 36.5V463.9C249.3 472.228 245.992 480.214 240.103 486.103C234.215 491.992 226.228 495.3 217.9 495.3H36.5001C28.1723 495.3 20.1855 491.992 14.2969 486.103C8.40826 480.214 5.10006 472.228 5.10006 463.9V36.5C5.10004 32.368 5.91552 28.2767 7.49977 24.4606C9.08402 20.6444 11.4059 17.1784 14.3322 14.2614C17.2586 11.3443 20.7319 9.03348 24.5531 7.46137C28.3743 5.88927 32.4681 5.08679 36.6001 5.09995H217.9ZM217.9 4.19995H36.6001C32.3631 4.19993 28.1677 5.03611 24.2545 6.66056C20.3413 8.28501 16.7871 10.6658 13.7958 13.6664C10.8044 16.6671 8.43468 20.2286 6.82238 24.1468C5.21007 28.0651 4.3869 32.263 4.40006 36.5V463.9C4.40006 472.44 7.79255 480.63 13.8312 486.669C19.8699 492.707 28.0601 496.1 36.6001 496.1H217.8C226.34 496.1 234.53 492.707 240.569 486.669C246.608 480.63 250 472.44 250 463.9V36.5C250 27.9773 246.621 19.8022 240.604 13.7664C234.587 7.73059 226.423 4.32642 217.9 4.29995V4.29995V4.19995Z" fill="#D9DADB"/>
<path d="M243.8 444.9H10.5V51.3999H243.7L243.8 444.9Z" fill="url(#paint0_linear)"/>
<path d="M188.3 32.6C190.454 32.6 192.2 30.854 192.2 28.7001C192.2 26.5461 190.454 24.8 188.3 24.8C186.146 24.8 184.4 26.5461 184.4 28.7001C184.4 30.854 186.146 32.6 188.3 32.6Z" fill="url(#paint1_radial)"/>
<path d="M80.2999 31.1C79.9451 31.1272 79.5885 31.0841 79.2504 30.9731C78.9124 30.862 78.5996 30.6852 78.3301 30.4529C78.0606 30.2206 77.8397 29.9373 77.6801 29.6193C77.5204 29.3013 77.4252 28.9549 77.3999 28.6C77.4252 28.2451 77.5204 27.8986 77.6801 27.5807C77.8397 27.2627 78.0606 26.9794 78.3301 26.747C78.5996 26.5147 78.9124 26.3379 79.2504 26.2269C79.5885 26.1159 79.9451 26.0727 80.2999 26.1H174.2C174.555 26.0727 174.911 26.1159 175.249 26.2269C175.587 26.3379 175.9 26.5147 176.17 26.747C176.439 26.9794 176.66 27.2627 176.82 27.5807C176.979 27.8986 177.075 28.2451 177.1 28.6C177.075 28.9549 176.979 29.3013 176.82 29.6193C176.66 29.9373 176.439 30.2206 176.17 30.4529C175.9 30.6852 175.587 30.862 175.249 30.9731C174.911 31.0841 174.555 31.1272 174.2 31.1H80.2999Z" fill="url(#paint2_linear)"/>
<path d="M167.8 459.7H86.3999C84.1908 459.7 82.3999 461.491 82.3999 463.7V476.26C82.3999 478.469 84.1908 480.26 86.3999 480.26H167.8C170.009 480.26 171.8 478.469 171.8 476.26V463.7C171.8 461.491 170.009 459.7 167.8 459.7Z" fill="url(#paint3_linear)" stroke="#CCCCCC" stroke-width="0.5" stroke-miterlimit="10"/>
<path d="M126.49 173L53.2803 305.916L39 295.982L106.739 173H126.49ZM127.51 173L200.72 305.916L215 295.982L147.261 173H127.51Z" fill="#F4E7DD"/>
<path d="M199.699 306.698L127 250.22L54.3003 306.698L69.137 317L127 272.066L184.863 317L199.699 306.698Z" fill="#F4E7DD"/>
</g>
<defs>
<linearGradient id="paint0_linear" x1="97.16" y1="85.9099" x2="156.26" y2="405.86" gradientUnits="userSpaceOnUse">
<stop stop-color="#F1D3C2"/>
<stop offset="1" stop-color="#DABE9F"/>
</linearGradient>
<radialGradient id="paint1_radial" cx="0" cy="0" r="1" gradientUnits="userSpaceOnUse" gradientTransform="translate(188.26 28.65) scale(3.87)">
<stop stop-color="#003652"/>
<stop offset="0.14" stop-color="#023651"/>
<stop offset="0.2" stop-color="#09344B"/>
<stop offset="0.23" stop-color="#143142"/>
<stop offset="0.26" stop-color="#252E35"/>
<stop offset="0.27" stop-color="#2D2C2F"/>
<stop offset="0.65" stop-color="#373739"/>
<stop offset="0.67" stop-color="#3B3B3D"/>
<stop offset="0.73" stop-color="#3D3D3F"/>
<stop offset="0.82" stop-color="#424145"/>
<stop offset="0.99" stop-color="#414045"/>
</radialGradient>
<linearGradient id="paint2_linear" x1="127.2" y1="31.14" x2="127.2" y2="26.17" gradientUnits="userSpaceOnUse">
<stop stop-color="#B0B2B3"/>
<stop offset="0.15" stop-color="#8A8B8D"/>
<stop offset="0.31" stop-color="#68686A"/>
<stop offset="0.48" stop-color="#4D4C4F"/>
<stop offset="0.65" stop-color="#39393B"/>
<stop offset="0.82" stop-color="#2E2D30"/>
<stop offset="0.99" stop-color="#2A292C"/>
</linearGradient>
<linearGradient id="paint3_linear" x1="127.14" y1="476.98" x2="127.14" y2="456.3" gradientUnits="userSpaceOnUse">
<stop stop-color="white"/>
<stop offset="0.02" stop-color="#FDFDFD"/>
<stop offset="0.4" stop-color="#E2E2E2"/>
<stop offset="0.74" stop-color="#D2D2D2"/>
<stop offset="1" stop-color="#CCCCCC"/>
</linearGradient>
<clipPath id="clip0">
<rect width="254.4" height="500.4" fill="white"/>
</clipPath>
</defs>
</svg>
