<svg width="253" height="500" viewBox="0 0 253 500" fill="none" xmlns="http://www.w3.org/2000/svg">
<g clip-path="url(#clip0)">
<path d="M131.3 500C96.3001 500 65.4001 497.7 62.8001 497.5H62.4001C56.4001 497.5 3.4001 495.8 1.1001 438.4C-1.1999 381 1.1001 55.5 1.1001 48.2C0.900103 45 0.500107 12.4 45.6001 3.9C59.4001 1.3 81.0001 0 109.5 0C156.9 0 206.3 3.6 209 3.9C215.8 4.7 250.1 10.4 252 48C253.8 82.9 252.1 425.5 252 442.4C252.38 450.479 250.73 458.524 247.2 465.8C241.8 476.9 229.4 491.2 200.8 495.8C183 498.5 159.6 500 131.3 500Z" fill="#B1B3B4"/>
<path d="M4.6001 47.8001C4.6001 47.8001 1.70011 15.7001 46.3001 7.4001C90.9001 -0.899903 203.3 6.8001 208.6 7.4001C213.9 8.0001 246.7 12.8001 248.4 47.8001C250.1 82.8001 248.4 439.7 248.4 439.7C248.4 439.7 252.6 480.7 200.2 489.1C147.8 497.5 62.9001 490.8 62.9001 490.8C62.9001 490.8 6.9001 492.6 4.6001 435.5C2.3001 378.4 4.6001 47.8001 4.6001 47.8001Z" fill="#ECEDED"/>
<path d="M24.3 12.4C26.8634 10.8334 29.5769 9.52695 32.4 8.49997C39.9707 5.77941 47.818 3.90141 55.8001 2.89997C69.1563 1.55508 82.577 0.954153 96 1.09997H112.3C129 1.19997 147.1 1.59997 169.2 2.29997L198.2 3.29997C202.6 3.49997 210.5 4.39997 214 5.39997C217.5 6.39997 219.9 7.59997 220.9 7.79997C220.3 7.79997 214.1 5.79997 211.2 5.39997C197.5 3.49997 183.8 3.89997 171 3.59997L116.1 2.49997H114.3L85.5 2.19997C80.5 2.19997 77.4 2.69997 73 2.79997L69.9 2.89997C66.7568 2.8893 63.6164 3.08975 60.5 3.49997C49.3 5.19997 40.5 6.69997 31.5 9.29997L29.2 10.2C27.7 10.6 26.8 11.3 25.3 11.8L24.3 12.4Z" fill="white"/>
<path d="M150.6 25.5C152.2 25.5 153.6 27.3 153.6 28.9C153.6 30.5 152.3 32.3 150.6 32.3H101.8C100.2 32.3 98.8 30.5 98.8 28.9C98.8 27.3 100.1 25.5 101.8 25.5H150.6V25.5Z" fill="url(#paint0_linear)"/>
<path d="M102 30C102.607 30 103.1 29.5076 103.1 28.9C103.1 28.2925 102.607 27.8 102 27.8C101.392 27.8 100.9 28.2925 100.9 28.9C100.9 29.5076 101.392 30 102 30Z" fill="url(#paint1_linear)"/>
<path d="M105.7 30C106.308 30 106.8 29.5076 106.8 28.9C106.8 28.2925 106.308 27.8 105.7 27.8C105.093 27.8 104.6 28.2925 104.6 28.9C104.6 29.5076 105.093 30 105.7 30Z" fill="url(#paint2_linear)"/>
<path d="M109.5 30C110.107 30 110.6 29.5076 110.6 28.9C110.6 28.2925 110.107 27.8 109.5 27.8C108.892 27.8 108.4 28.2925 108.4 28.9C108.4 29.5076 108.892 30 109.5 30Z" fill="url(#paint3_linear)"/>
<path d="M113.2 30C113.808 30 114.3 29.5076 114.3 28.9C114.3 28.2925 113.808 27.8 113.2 27.8C112.593 27.8 112.1 28.2925 112.1 28.9C112.1 29.5076 112.593 30 113.2 30Z" fill="url(#paint4_linear)"/>
<path d="M117 30C117.607 30 118.1 29.5076 118.1 28.9C118.1 28.2925 117.607 27.8 117 27.8C116.392 27.8 115.9 28.2925 115.9 28.9C115.9 29.5076 116.392 30 117 30Z" fill="url(#paint5_linear)"/>
<path d="M120.7 30C121.308 30 121.8 29.5076 121.8 28.9C121.8 28.2925 121.308 27.8 120.7 27.8C120.093 27.8 119.6 28.2925 119.6 28.9C119.6 29.5076 120.093 30 120.7 30Z" fill="url(#paint6_linear)"/>
<path d="M124.5 30C125.107 30 125.6 29.5076 125.6 28.9C125.6 28.2925 125.107 27.8 124.5 27.8C123.892 27.8 123.4 28.2925 123.4 28.9C123.4 29.5076 123.892 30 124.5 30Z" fill="url(#paint7_linear)"/>
<path d="M128.2 30C128.808 30 129.3 29.5076 129.3 28.9C129.3 28.2925 128.808 27.8 128.2 27.8C127.593 27.8 127.1 28.2925 127.1 28.9C127.1 29.5076 127.593 30 128.2 30Z" fill="url(#paint8_linear)"/>
<path d="M132 30C132.607 30 133.1 29.5076 133.1 28.9C133.1 28.2925 132.607 27.8 132 27.8C131.392 27.8 130.9 28.2925 130.9 28.9C130.9 29.5076 131.392 30 132 30Z" fill="url(#paint9_linear)"/>
<path d="M135.8 30C136.407 30 136.9 29.5076 136.9 28.9C136.9 28.2925 136.407 27.8 135.8 27.8C135.192 27.8 134.7 28.2925 134.7 28.9C134.7 29.5076 135.192 30 135.8 30Z" fill="url(#paint10_linear)"/>
<path d="M139.5 30C140.107 30 140.6 29.5076 140.6 28.9C140.6 28.2925 140.107 27.8 139.5 27.8C138.892 27.8 138.4 28.2925 138.4 28.9C138.4 29.5076 138.892 30 139.5 30Z" fill="url(#paint11_linear)"/>
<path d="M143.3 30C143.907 30 144.4 29.5076 144.4 28.9C144.4 28.2925 143.907 27.8 143.3 27.8C142.692 27.8 142.2 28.2925 142.2 28.9C142.2 29.5076 142.692 30 143.3 30Z" fill="url(#paint12_linear)"/>
<path d="M147 30C147.607 30 148.1 29.5076 148.1 28.9C148.1 28.2925 147.607 27.8 147 27.8C146.392 27.8 145.9 28.2925 145.9 28.9C145.9 29.5076 146.392 30 147 30Z" fill="url(#paint13_linear)"/>
<path d="M150.8 30C151.407 30 151.9 29.5076 151.9 28.9C151.9 28.2925 151.407 27.8 150.8 27.8C150.192 27.8 149.7 28.2925 149.7 28.9C149.7 29.5076 150.192 30 150.8 30Z" fill="url(#paint14_linear)"/>
<path d="M248.5 445.1C248.289 451.511 246.757 457.809 244 463.6C239 474 227.3 487.4 200.3 491.7C182.7 494.5 159.5 496.1 131.3 496.1C95.9001 496.1 64.4001 493.3 63.1001 493.2L62.9001 493L62.3001 493.5C56.9001 493.5 11.0001 491.1 5.1001 445.1H1.6001C7.6001 494.1 56.6001 497 62.4001 497C62.5799 496.924 62.7482 496.823 62.9001 496.7C65.5001 496.9 96.4001 499 131.4 499C159.7 499 183.1 497.5 200.9 494.6C229.4 490 241.9 476.1 247.3 464.9C250.321 458.723 251.992 451.973 252.2 445.1H248.6H248.5Z" fill="url(#paint15_linear)"/>
<path d="M251.9 212.5C251.9 212.5 250.9 73.2001 251.2 52.6C251.5 32 244.2 25.8 244.2 25.8C250.3 41.9 249.5 47.2 249.5 47.2L250.6 212.5L249.5 444.5C249.5 444.5 250.3 449.8 244.2 465.9C244.2 465.9 251.5 459.8 251.2 439.1C250.9 418.4 251.9 212.5 251.9 212.5Z" fill="white"/>
<path d="M1.5 212.5C1.5 212.5 2.5 73.2001 2.2 52.6C1.9 32 9.2 25.8 9.2 25.8C3.1 41.9 3.9 47.2 3.9 47.2L2.8 212.5L3.9 444.5C3.9 444.5 3.1 449.8 9.2 465.9C9.2 465.9 1.9 459.8 2.2 439.1C2.5 418.4 1.5 212.5 1.5 212.5Z" fill="white"/>
<path d="M202 35.2001C205.479 35.2001 208.3 32.3795 208.3 28.9001C208.3 25.4207 205.479 22.6001 202 22.6001C198.521 22.6001 195.7 25.4207 195.7 28.9001C195.7 32.3795 198.521 35.2001 202 35.2001Z" fill="url(#paint16_linear)"/>
<path d="M186.3 32.9C188.564 32.9 190.4 31.0643 190.4 28.7999C190.4 26.5356 188.564 24.7 186.3 24.7C184.036 24.7 182.2 26.5356 182.2 28.7999C182.2 31.0643 184.036 32.9 186.3 32.9Z" fill="url(#paint17_linear)"/>
<path d="M154.1 461.5C153.5 459 149.3 459.1 149.3 459.1H102C102 459.1 97.8001 459.1 97.2001 461.5C96.6001 463.9 97.4001 474.1 106.8 474.1H144.5C153.9 474.1 154.7 464 154.1 461.5Z" fill="#B3B3B3"/>
<path d="M106.8 473.1C105.611 473.183 104.419 472.981 103.323 472.512C102.228 472.042 101.26 471.318 100.5 470.4C98.7761 468.113 98.0217 465.239 98.3999 462.4C98.6999 461.1 101.4 461.1 102.1 461.1H149.4C150.2 461.1 152.7 461.2 153 462.5C153.373 465.37 152.62 468.273 150.9 470.6C149.4 472.5 147.3 473.1 144.6 473.1H106.8Z" fill="#E6E6E6"/>
<path d="M44.6001 459.1V459.7V460.8V468.1H46.6001V461.1H57.6001V468.1H60.6001V460.8V459.7V459.1H44.6001Z" fill="#B3B3B3"/>
<path d="M56.6001 462.1H47.6001V465.1H56.6001V462.1Z" fill="#B3B3B3"/>
<path d="M56.6001 466.1H47.6001V468.1H56.6001V466.1Z" fill="#B3B3B3"/>
<path d="M202.7 461.1H197.6V457.9L190.5 460.9L197.6 463.9V462.1H202.7C203.496 462.1 204.259 462.416 204.821 462.979C205.384 463.541 205.7 464.304 205.7 465.1C205.7 465.896 205.384 466.659 204.821 467.221C204.259 467.784 203.496 468.1 202.7 468.1H192.6V469.1H202.7C203.225 469.1 203.745 468.996 204.231 468.795C204.716 468.594 205.157 468.3 205.528 467.928C205.9 467.557 206.194 467.116 206.396 466.631C206.597 466.145 206.7 465.625 206.7 465.1C206.7 464.575 206.597 464.054 206.396 463.569C206.194 463.084 205.9 462.643 205.528 462.271C205.157 461.9 204.716 461.605 204.231 461.404C203.745 461.203 203.225 461.1 202.7 461.1Z" fill="#B3B3B3"/>
<path d="M238.6 48.1001H15.6001V441.1H238.6V48.1001Z" fill="url(#paint18_linear)"/>
<path d="M132.49 173L59.2803 305.916L45 295.982L112.739 173H132.49ZM133.51 173L206.72 305.916L221 295.982L153.261 173H133.51Z" fill="#F4E7DD"/>
<path d="M205.699 306.698L133 250.22L60.3003 306.698L75.137 317L133 272.066L190.863 317L205.699 306.698Z" fill="#F4E7DD"/>
</g>
<defs>
<linearGradient id="paint0_linear" x1="126.16" y1="32.3" x2="126.16" y2="25.45" gradientUnits="userSpaceOnUse">
<stop stop-color="#B0B2B3"/>
<stop offset="0.15" stop-color="#8A8B8D"/>
<stop offset="0.31" stop-color="#68686A"/>
<stop offset="0.48" stop-color="#4D4C4F"/>
<stop offset="0.65" stop-color="#39393B"/>
<stop offset="0.82" stop-color="#2E2D30"/>
<stop offset="0.99" stop-color="#2A292C"/>
</linearGradient>
<linearGradient id="paint1_linear" x1="101.99" y1="29.99" x2="101.99" y2="27.83" gradientUnits="userSpaceOnUse">
<stop stop-color="#C8C8C8"/>
<stop offset="0.48" stop-color="#A8A8A8"/>
<stop offset="1" stop-color="#808080"/>
</linearGradient>
<linearGradient id="paint2_linear" x1="337.229" y1="93.7781" x2="337.229" y2="89.0261" gradientUnits="userSpaceOnUse">
<stop stop-color="#C8C8C8"/>
<stop offset="0.48" stop-color="#A8A8A8"/>
<stop offset="1" stop-color="#808080"/>
</linearGradient>
<linearGradient id="paint3_linear" x1="349.3" y1="93.7781" x2="349.3" y2="89.0261" gradientUnits="userSpaceOnUse">
<stop stop-color="#C8C8C8"/>
<stop offset="0.48" stop-color="#A8A8A8"/>
<stop offset="1" stop-color="#808080"/>
</linearGradient>
<linearGradient id="paint4_linear" x1="361.251" y1="93.7781" x2="361.251" y2="89.0261" gradientUnits="userSpaceOnUse">
<stop stop-color="#C8C8C8"/>
<stop offset="0.48" stop-color="#A8A8A8"/>
<stop offset="1" stop-color="#808080"/>
</linearGradient>
<linearGradient id="paint5_linear" x1="373.3" y1="93.7781" x2="373.3" y2="89.0261" gradientUnits="userSpaceOnUse">
<stop stop-color="#C8C8C8"/>
<stop offset="0.48" stop-color="#A8A8A8"/>
<stop offset="1" stop-color="#808080"/>
</linearGradient>
<linearGradient id="paint6_linear" x1="385.251" y1="93.7781" x2="385.251" y2="89.0261" gradientUnits="userSpaceOnUse">
<stop stop-color="#C8C8C8"/>
<stop offset="0.48" stop-color="#A8A8A8"/>
<stop offset="1" stop-color="#808080"/>
</linearGradient>
<linearGradient id="paint7_linear" x1="397.3" y1="93.7781" x2="397.3" y2="89.0261" gradientUnits="userSpaceOnUse">
<stop stop-color="#C8C8C8"/>
<stop offset="0.48" stop-color="#A8A8A8"/>
<stop offset="1" stop-color="#808080"/>
</linearGradient>
<linearGradient id="paint8_linear" x1="409.251" y1="93.7781" x2="409.251" y2="89.0261" gradientUnits="userSpaceOnUse">
<stop stop-color="#C8C8C8"/>
<stop offset="0.48" stop-color="#A8A8A8"/>
<stop offset="1" stop-color="#808080"/>
</linearGradient>
<linearGradient id="paint9_linear" x1="421.302" y1="93.7781" x2="421.302" y2="89.0261" gradientUnits="userSpaceOnUse">
<stop stop-color="#C8C8C8"/>
<stop offset="0.48" stop-color="#A8A8A8"/>
<stop offset="1" stop-color="#808080"/>
</linearGradient>
<linearGradient id="paint10_linear" x1="433.35" y1="93.7781" x2="433.35" y2="89.0261" gradientUnits="userSpaceOnUse">
<stop stop-color="#C8C8C8"/>
<stop offset="0.48" stop-color="#A8A8A8"/>
<stop offset="1" stop-color="#808080"/>
</linearGradient>
<linearGradient id="paint11_linear" x1="445.302" y1="93.7781" x2="445.302" y2="89.0261" gradientUnits="userSpaceOnUse">
<stop stop-color="#C8C8C8"/>
<stop offset="0.48" stop-color="#A8A8A8"/>
<stop offset="1" stop-color="#808080"/>
</linearGradient>
<linearGradient id="paint12_linear" x1="457.35" y1="93.7781" x2="457.35" y2="89.0261" gradientUnits="userSpaceOnUse">
<stop stop-color="#C8C8C8"/>
<stop offset="0.48" stop-color="#A8A8A8"/>
<stop offset="1" stop-color="#808080"/>
</linearGradient>
<linearGradient id="paint13_linear" x1="469.324" y1="93.7781" x2="469.324" y2="89.0261" gradientUnits="userSpaceOnUse">
<stop stop-color="#C8C8C8"/>
<stop offset="0.48" stop-color="#A8A8A8"/>
<stop offset="1" stop-color="#808080"/>
</linearGradient>
<linearGradient id="paint14_linear" x1="481.371" y1="93.7781" x2="481.371" y2="89.0261" gradientUnits="userSpaceOnUse">
<stop stop-color="#C8C8C8"/>
<stop offset="0.48" stop-color="#A8A8A8"/>
<stop offset="1" stop-color="#808080"/>
</linearGradient>
<linearGradient id="paint15_linear" x1="1.5701" y1="471.99" x2="252.09" y2="471.99" gradientUnits="userSpaceOnUse">
<stop stop-color="#B1B3B4"/>
<stop offset="0.03" stop-color="#B8B9BA"/>
<stop offset="0.1" stop-color="#C3C4C4"/>
<stop offset="0.21" stop-color="#CACACA"/>
<stop offset="0.5" stop-color="#CCCCCC"/>
<stop offset="1" stop-color="#B1B3B4"/>
</linearGradient>
<linearGradient id="paint16_linear" x1="201.96" y1="35.2501" x2="201.96" y2="22.5701" gradientUnits="userSpaceOnUse">
<stop stop-color="#808080"/>
<stop offset="1"/>
</linearGradient>
<linearGradient id="paint17_linear" x1="1710.02" y1="294.234" x2="1710.02" y2="226.83" gradientUnits="userSpaceOnUse">
<stop stop-color="#808080"/>
<stop offset="1"/>
</linearGradient>
<linearGradient id="paint18_linear" x1="89.7801" y1="82.9001" x2="165.96" y2="413.02" gradientUnits="userSpaceOnUse">
<stop stop-color="#F1D3C2"/>
<stop offset="1" stop-color="#DABE9F"/>
</linearGradient>
<clipPath id="clip0">
<rect width="252.8" height="500" fill="white"/>
</clipPath>
</defs>
</svg>
