<svg id="Layer_1" data-name="Layer 1" xmlns="http://www.w3.org/2000/svg" xmlns:xlink="http://www.w3.org/1999/xlink" viewBox="0 0 252.8 500"><defs><style>.cls-1{fill:#b1b3b4;}.cls-2{fill:#eceded;}.cls-3{fill:#fff;}.cls-4{fill:url(#linear-gradient);}.cls-5{fill:url(#linear-gradient-2);}.cls-6{fill:url(#linear-gradient-3);}.cls-7{fill:url(#linear-gradient-4);}.cls-8{fill:url(#linear-gradient-5);}.cls-9{fill:url(#linear-gradient-6);}.cls-10{fill:url(#linear-gradient-7);}.cls-11{fill:url(#linear-gradient-8);}.cls-12{fill:url(#linear-gradient-9);}.cls-13{fill:url(#linear-gradient-10);}.cls-14{fill:url(#linear-gradient-11);}.cls-15{fill:url(#linear-gradient-12);}.cls-16{fill:url(#linear-gradient-13);}.cls-17{fill:url(#linear-gradient-14);}.cls-18{fill:url(#linear-gradient-15);}.cls-19{fill:url(#linear-gradient-16);}.cls-20{fill:url(#linear-gradient-17);}.cls-21{fill:url(#linear-gradient-18);}.cls-22{fill:#b3b3b3;}.cls-23{fill:#e6e6e6;}.cls-24{fill:url(#linear-gradient-19);}.cls-25{opacity:0.75;}</style><linearGradient id="linear-gradient" x1="1346.74" y1="6158.1" x2="1346.74" y2="6164.95" gradientTransform="translate(1473 6191.7) rotate(180)" gradientUnits="userSpaceOnUse"><stop offset="0" stop-color="#b0b2b3"/><stop offset="0.15" stop-color="#8a8b8d"/><stop offset="0.31" stop-color="#68686a"/><stop offset="0.48" stop-color="#4d4c4f"/><stop offset="0.65" stop-color="#39393b"/><stop offset="0.82" stop-color="#2e2d30"/><stop offset="0.99" stop-color="#2a292c"/></linearGradient><linearGradient id="linear-gradient-2" x1="101.99" y1="29.99" x2="101.99" y2="27.83" gradientUnits="userSpaceOnUse"><stop offset="0" stop-color="#c8c8c8"/><stop offset="0.48" stop-color="#a8a8a8"/><stop offset="1" stop-color="gray"/></linearGradient><linearGradient id="linear-gradient-3" x1="105.74" y1="29.99" x2="105.74" y2="27.83" xlink:href="#linear-gradient-2"/><linearGradient id="linear-gradient-4" x1="109.5" y1="29.99" x2="109.5" y2="27.83" xlink:href="#linear-gradient-2"/><linearGradient id="linear-gradient-5" x1="113.25" y1="29.99" x2="113.25" y2="27.83" xlink:href="#linear-gradient-2"/><linearGradient id="linear-gradient-6" x1="117" y1="29.99" x2="117" y2="27.83" xlink:href="#linear-gradient-2"/><linearGradient id="linear-gradient-7" x1="120.75" y1="29.99" x2="120.75" y2="27.83" xlink:href="#linear-gradient-2"/><linearGradient id="linear-gradient-8" x1="124.5" y1="29.99" x2="124.5" y2="27.83" xlink:href="#linear-gradient-2"/><linearGradient id="linear-gradient-9" x1="128.25" y1="29.99" x2="128.25" y2="27.83" xlink:href="#linear-gradient-2"/><linearGradient id="linear-gradient-10" x1="132" y1="29.99" x2="132" y2="27.83" xlink:href="#linear-gradient-2"/><linearGradient id="linear-gradient-11" x1="135.75" y1="29.99" x2="135.75" y2="27.83" xlink:href="#linear-gradient-2"/><linearGradient id="linear-gradient-12" x1="139.5" y1="29.99" x2="139.5" y2="27.83" xlink:href="#linear-gradient-2"/><linearGradient id="linear-gradient-13" x1="143.25" y1="29.99" x2="143.25" y2="27.83" xlink:href="#linear-gradient-2"/><linearGradient id="linear-gradient-14" x1="147.01" y1="29.99" x2="147.01" y2="27.83" xlink:href="#linear-gradient-2"/><linearGradient id="linear-gradient-15" x1="150.76" y1="29.99" x2="150.76" y2="27.83" xlink:href="#linear-gradient-2"/><linearGradient id="linear-gradient-16" x1="1.67" y1="473.29" x2="252.19" y2="473.29" gradientUnits="userSpaceOnUse"><stop offset="0" stop-color="#b1b3b4"/><stop offset="0.03" stop-color="#b8b9ba"/><stop offset="0.1" stop-color="#c3c4c4"/><stop offset="0.21" stop-color="#cacaca"/><stop offset="0.5" stop-color="#ccc"/><stop offset="1" stop-color="#b1b3b4"/></linearGradient><linearGradient id="linear-gradient-17" x1="201.96" y1="35.25" x2="201.96" y2="22.57" gradientUnits="userSpaceOnUse"><stop offset="0" stop-color="gray"/><stop offset="1"/></linearGradient><linearGradient id="linear-gradient-18" x1="186.32" y1="32.87" x2="186.32" y2="24.65" xlink:href="#linear-gradient-17"/><linearGradient id="linear-gradient-19" x1="89.78" y1="82.9" x2="165.96" y2="413.02" gradientUnits="userSpaceOnUse"><stop offset="0" stop-color="#f1d3c2"/><stop offset="1" stop-color="#dabe9f"/></linearGradient></defs><title>device_02</title><path class="cls-1" d="M131.4,501.3c-35,0-65.9-2.3-68.5-2.5H62.5c-6,0-59-1.7-61.3-59.1s0-382.9,0-390.2C1,46.3.6,13.7,45.7,5.2c13.8-2.6,35.4-3.9,63.9-3.9,47.4,0,96.8,3.6,99.5,3.9,6.8,0.8,41.1,6.5,43,44.1,1.8,34.9.1,377.5,0,394.4a48.4,48.4,0,0,1-4.8,23.4c-5.4,11.1-17.8,25.4-46.4,30C183.1,499.8,159.7,501.3,131.4,501.3Z" transform="translate(-0.1 -1.3)"/><path class="cls-2" d="M4.7,49.1S1.8,17,46.4,8.7s157-.6,162.3,0,38.1,5.4,39.8,40.4,0,391.9,0,391.9,4.2,41-48.2,49.4S63,492.1,63,492.1,7,493.9,4.7,436.8,4.7,49.1,4.7,49.1Z" transform="translate(-0.1 -1.3)"/><path class="cls-3" d="M24.4,13.7a45.1,45.1,0,0,1,8.1-3.9A109.5,109.5,0,0,1,55.9,4.2,362,362,0,0,1,96.1,2.4h16.3c16.7,0.1,34.8.5,56.9,1.2l29,1c4.4,0.2,12.3,1.1,15.8,2.1s5.9,2.2,6.9,2.4c-0.6,0-6.8-2-9.7-2.4-13.7-1.9-27.4-1.5-40.2-1.8L116.2,3.8h-1.8L85.6,3.5c-5,0-8.1.5-12.5,0.6L70,4.2a70.2,70.2,0,0,0-9.4.6c-11.2,1.7-20,3.2-29,5.8l-2.3.9c-1.5.4-2.4,1.1-3.9,1.6Z" transform="translate(-0.1 -1.3)"/><path class="cls-4" d="M150.7,26.8c1.6,0,3,1.8,3,3.4s-1.3,3.4-3,3.4H101.9c-1.6,0-3-1.8-3-3.4s1.3-3.4,3-3.4h48.8Z" transform="translate(-0.1 -1.3)"/><circle class="cls-5" cx="102" cy="28.9" r="1.1"/><circle class="cls-6" cx="105.7" cy="28.9" r="1.1"/><circle class="cls-7" cx="109.5" cy="28.9" r="1.1"/><circle class="cls-8" cx="113.2" cy="28.9" r="1.1"/><circle class="cls-9" cx="117" cy="28.9" r="1.1"/><circle class="cls-10" cx="120.7" cy="28.9" r="1.1"/><circle class="cls-11" cx="124.5" cy="28.9" r="1.1"/><circle class="cls-12" cx="128.2" cy="28.9" r="1.1"/><circle class="cls-13" cx="132" cy="28.9" r="1.1"/><circle class="cls-14" cx="135.8" cy="28.9" r="1.1"/><circle class="cls-15" cx="139.5" cy="28.9" r="1.1"/><circle class="cls-16" cx="143.3" cy="28.9" r="1.1"/><circle class="cls-17" cx="147" cy="28.9" r="1.1"/><circle class="cls-18" cx="150.8" cy="28.9" r="1.1"/><path class="cls-19" d="M248.6,446.4a46.6,46.6,0,0,1-4.5,18.5c-5,10.4-16.7,23.8-43.7,28.1-17.6,2.8-40.8,4.4-69,4.4h0c-35.4,0-66.9-2.8-68.2-2.9l-0.2-.2-0.6.5c-5.4,0-51.3-2.4-57.2-48.4H1.7c6,49,55,51.9,60.8,51.9a2.1,2.1,0,0,0,.5-0.3c2.6,0.2,33.5,2.3,68.5,2.3,28.3,0,51.7-1.5,69.5-4.4,28.5-4.6,41-18.5,46.4-29.7a48.4,48.4,0,0,0,4.9-19.8h-3.6Z" transform="translate(-0.1 -1.3)"/><path class="cls-3" d="M252,213.8s-1-139.3-.7-159.9-7-26.8-7-26.8c6.1,16.1,5.3,21.4,5.3,21.4l1.1,165.3-1.1,232s0.8,5.3-5.3,21.4c0,0,7.3-6.1,7-26.8S252,213.8,252,213.8Z" transform="translate(-0.1 -1.3)"/><path class="cls-3" d="M1.6,213.8s1-139.3.7-159.9,7-26.8,7-26.8C3.2,43.2,4,48.5,4,48.5L2.9,213.8,4,445.8s-0.8,5.3,5.3,21.4c0,0-7.3-6.1-7-26.8S1.6,213.8,1.6,213.8Z" transform="translate(-0.1 -1.3)"/><circle class="cls-20" cx="202" cy="28.9" r="6.3"/><circle class="cls-21" cx="186.3" cy="28.8" r="4.1"/><path class="cls-22" d="M154.2,462.8c-0.6-2.5-4.8-2.4-4.8-2.4H102.1s-4.2,0-4.8,2.4,0.2,12.6,9.6,12.6h37.7C154,475.4,154.8,465.3,154.2,462.8Z" transform="translate(-0.1 -1.3)"/><path class="cls-23" d="M106.9,474.4a7.5,7.5,0,0,1-6.3-2.7,10.9,10.9,0,0,1-2.1-8c0.3-1.3,3-1.3,3.7-1.3h47.3c0.8,0,3.3.1,3.6,1.4a11.2,11.2,0,0,1-2.1,8.1c-1.5,1.9-3.6,2.5-6.3,2.5H106.9Z" transform="translate(-0.1 -1.3)"/><polygon class="cls-22" points="44.6 459.1 44.6 459.7 44.6 460.8 44.6 468.1 46.6 468.1 46.6 461.1 57.6 461.1 57.6 468.1 60.6 468.1 60.6 460.8 60.6 459.7 60.6 459.1 44.6 459.1"/><rect class="cls-22" x="47.6" y="462.1" width="9" height="3"/><rect class="cls-22" x="47.6" y="466.1" width="9" height="2"/><path class="cls-22" d="M202.8,462.4h-5.1v-3.2l-7.1,3,7.1,3v-1.8h5.1a3,3,0,0,1,0,6H192.7v1h10.1A4,4,0,1,0,202.8,462.4Z" transform="translate(-0.1 -1.3)"/><rect class="cls-24" x="15.6" y="48.1" width="223" height="393"/><g class="cls-25"><path class="cls-3" d="M118.2,219.1A43.9,43.9,0,1,0,162.1,263,43.9,43.9,0,0,0,118.2,219.1Zm0,63.4A19.5,19.5,0,1,1,137.7,263,19.5,19.5,0,0,1,118.2,282.5Z" transform="translate(-0.1 -1.3)"/><path class="cls-3" d="M101.2,215.7a5.8,5.8,0,0,1-1.8.3,4.9,4.9,0,0,1-4.5-2.9h0l-7.8-16.8v0.2a4.8,4.8,0,0,1-.5-2.2,5,5,0,0,1,2.7-4.4,62.8,62.8,0,0,1,70.9,102.4h0l-0.4.2a0.6,0.6,0,0,1-.6-0.6,0.8,0.8,0,0,1,.1-0.4,50.2,50.2,0,0,0-58.2-75.9" transform="translate(-0.1 -1.3)"/></g></svg>