<svg id="Layer_1" data-name="Layer 1" xmlns="http://www.w3.org/2000/svg" viewBox="0 0 400 212.1"><defs><style>.cls-1{fill:#a3333b;}.cls-2{fill:#fff;}</style></defs><title>gial_logo_stacked</title><path class="cls-1" d="M190.2,96.5h35.7V80.6l-7.1-7.1H225V68.2l28.3,28.3h20.4V80.6l15.9,15.9h19.5V52.2h11.5v-15L285.2,1.8H243.6V7.1l-5.5-5.7H217.9V29.5L189.7,1.4h-35V6l-3.6-4.6H130.4L124.7,16,110.1,1.4H89.4L92,8.1,85.8,1.4H65.7V22.2L50,6.3a24.4,24.4,0,0,0-5.1-3.1A33.1,33.1,0,0,0,38.7,1a33.6,33.6,0,0,0-8.6-1,29.5,29.5,0,0,0-12,2.6A28.7,28.7,0,0,0,8.7,9.2a30.9,30.9,0,0,0-6.4,9.9A31.9,31.9,0,0,0,0,31.2,31.5,31.5,0,0,0,2.5,43.6a30.2,30.2,0,0,0,6.6,9.8L44.3,88.8a31.2,31.2,0,0,0,9.9,6.6,31.4,31.4,0,0,0,28.2-2A31.4,31.4,0,0,0,89,88.2a17.6,17.6,0,0,0,1.9-2.3l10.6,10.6h19.9V69.9l26.7,26.6h15.1L170.8,77"/><polyline class="cls-1" points="342.2 1.5 328 1.4 305.4 61 340.6 96.3 359.4 96.3 361.3 91.3 376.4 91.3 380.8 96.3 400 96.3 382.1 48.8 377.1 36.2"/><path class="cls-1" d="M79.8,209.8h54.9v-23L109.9,162V150.7a46.7,46.7,0,0,0,8.8,12.3l35.4,35.4a47.1,47.1,0,0,0,14.9,10,46.8,46.8,0,0,0,36.4,0,47.2,47.2,0,0,0,14.9-10,46.2,46.2,0,0,0,5.9-7.2l18.6,18.6H281a44.5,44.5,0,0,0,13.6-1.9,28.6,28.6,0,0,0,10.3-5.6,24.6,24.6,0,0,0,5.1-6.1l13.7,13.6h27.9V187.7l-3.4-3.5,4.6-63.8L317.6,85.3H287.1l2.1,29.2L268.2,93.2a18.2,18.2,0,0,0-2.3-1.9,31.2,31.2,0,0,0-10-4.6,46.7,46.7,0,0,0-8.2-1.3H209.5v36.3L185.1,96.9A48.3,48.3,0,0,0,170,86.8a45.6,45.6,0,0,0-18.2-3.7,44.9,44.9,0,0,0-18,3.7A47.5,47.5,0,0,0,118.8,97a46.5,46.5,0,0,0-9.9,14.8,52.3,52.3,0,0,0-2.2,6.5L74.6,85.3H45v89.2"/><path class="cls-2" d="M39.2,21.7a10.9,10.9,0,0,0-4-2.2,15.7,15.7,0,0,0-4.7-.8,11.7,11.7,0,0,0-4.7.9,11.2,11.2,0,0,0-3.7,2.6,11.9,11.9,0,0,0-2.5,4,13.8,13.8,0,0,0-.9,5,12.6,12.6,0,0,0,1,5,11.9,11.9,0,0,0,2.7,4,12.3,12.3,0,0,0,4,2.6,12.6,12.6,0,0,0,4.9.9,11.8,11.8,0,0,0,5.5-1.3A13.2,13.2,0,0,0,41,38.9H35.6V26.4H58.5V46.2a32.8,32.8,0,0,1-4.9,6.6,31.1,31.1,0,0,1-6.4,5.1,30.7,30.7,0,0,1-7.6,3.3A31.1,31.1,0,0,1,2.5,43.5,30.8,30.8,0,0,1,0,31.2,31.9,31.9,0,0,1,2.3,19.1,31.1,31.1,0,0,1,8.7,9.2a29.8,29.8,0,0,1,9.6-6.7A29.4,29.4,0,0,1,30.3,0a33.6,33.6,0,0,1,8.6,1,33.1,33.1,0,0,1,6.1,2.2A22.5,22.5,0,0,1,50,6.3Z"/><path class="cls-2" d="M65.7,1.4H85.8V60.9H65.7V1.4Z"/><path class="cls-2" d="M110.1,1.4l10.1,25.8L130.4,1.4h20.8L128,60.9H112.5L89.4,1.4h20.8Z"/><path class="cls-2" d="M154.7,1.4h35V17h-16v6.6h15.8V38.4H173.7v6.9h16.7V60.9H154.7V1.4Z"/><path class="cls-2" d="M217.9,1.4h20.1V60.9H217.9V1.4Z"/><path class="cls-2" d="M254.4,17h-11V1.4H285V17H274V60.9H254.4V17Z"/><path class="cls-2" d="M328,1.4h14.3l22.5,59.4H346.1l-2-5.3h-18l-2,5.3H305.4Zm11.1,41-4-10.4-4,10.4h8Z"/><path class="cls-2" d="M45,85.3H74.6v65.8H99.2v23.4H45V85.3Z"/><path class="cls-2" d="M105.2,130a45.5,45.5,0,0,1,3.7-18.2,46.8,46.8,0,0,1,24.9-24.9,46.8,46.8,0,0,1,36.4,0,46.8,46.8,0,0,1,24.9,24.9,46.8,46.8,0,0,1,0,36.4,46.8,46.8,0,0,1-24.9,24.9,46.8,46.8,0,0,1-36.4,0,46.8,46.8,0,0,1-24.9-24.9A45.5,45.5,0,0,1,105.2,130Zm28.1,0a18.2,18.2,0,0,0,1.5,7.3,18.8,18.8,0,0,0,10,10,18.8,18.8,0,0,0,14.6,0,18.8,18.8,0,0,0,10-10,18.8,18.8,0,0,0,0-14.6,18.8,18.8,0,0,0-10-10,18.8,18.8,0,0,0-14.6,0,18.8,18.8,0,0,0-10,10A18.2,18.2,0,0,0,133.3,130Z"/><path class="cls-2" d="M209.5,85.3h34.9a45.8,45.8,0,0,1,12.2,1.5,27.7,27.7,0,0,1,9.5,4.5,20.9,20.9,0,0,1,6.1,7.5,23.5,23.5,0,0,1,2.2,10.5,21.9,21.9,0,0,1-1.1,7.3,28.1,28.1,0,0,1-2.3,5,16.7,16.7,0,0,1-3.3,4,22.7,22.7,0,0,1,5.3,4.8,28.8,28.8,0,0,1,3.7,6.4,24,24,0,0,1,1.7,9.5,28.8,28.8,0,0,1-2.3,11.6,24.8,24.8,0,0,1-6.5,8.9,28.6,28.6,0,0,1-10.3,5.6,44.5,44.5,0,0,1-13.6,1.9H209.5V85.3Zm37.4,27.1q0-6.1-6.7-6.1H237v12.3h3.2Q246.9,118.6,246.9,112.5Zm-6.7,41q10.2,0,10.2-7.8T240.2,138H237v15.5h3.2Z"/><path class="cls-2" d="M287.1,85.3h30.5l-4.5,62.8H291.7Zm0.9,66.8h28.6v22.3H288.1V152.2Z"/></svg>