<svg id="Layer_1" data-name="Layer 1" xmlns="http://www.w3.org/2000/svg" viewBox="0 0 400 58.2"><defs><style>.cls-1{fill:#a3333b;}.cls-2{fill:#fff;}</style></defs><title>gial_logo_horiz</title><path class="cls-1" d="M120.1,57.2h24V46.5l-4.8-4.8h4.2V38.1l19.1,19.1h13.7V46.5L187,57.2h13.1V35.3h15.7V25.1L191.8,1.3h-28V4.9l-3.7-3.8H146.6V20l-19-18.9H104.1V4.2l-2.4-3.1h-14l-3.8,9.8L74.1,1.1h-14l1.8,4.5L57.7,1.1H44.2v14L33.6,4.4a16.4,16.4,0,0,0-3.4-2.1A22.3,22.3,0,0,0,26.1.8,22.6,22.6,0,0,0,20.2.1a19.9,19.9,0,0,0-8.1,1.7A19.3,19.3,0,0,0,5.8,6.3a20.8,20.8,0,0,0-4.3,6.7A21.4,21.4,0,0,0,0,21.1a21.2,21.2,0,0,0,1.7,8.4A20.3,20.3,0,0,0,6.1,36L22,52a21,21,0,0,0,6.7,4.4,21.1,21.1,0,0,0,19-1.4A21.2,21.2,0,0,0,52,51.6a11.8,11.8,0,0,0,1.3-1.6l7.1,7.1H73.8V39.3L91.8,57.2h10.2L107,44.1"/><polyline class="cls-1" points="230.2 1.1 220.6 1.1 205.5 41.4 221.6 57.7 238.8 57.7 240.1 53.7 250.2 53.7 253.2 57.7 266.1 57.7 257 33.2 253.7 24.6"/><path class="cls-2" d="M26.4,14.7a7.3,7.3,0,0,0-2.7-1.5,10.6,10.6,0,0,0-3.2-.5,7.8,7.8,0,0,0-3.2.6,7.5,7.5,0,0,0-2.5,1.7,8,8,0,0,0-1.6,2.7,9.3,9.3,0,0,0-.6,3.4,8.5,8.5,0,0,0,.7,3.4A8,8,0,0,0,15,27.1a8.3,8.3,0,0,0,2.7,1.7,8.5,8.5,0,0,0,3.3.6,8,8,0,0,0,3.7-.9,8.9,8.9,0,0,0,2.9-2.4H24V17.9H39.4V31.2a22.1,22.1,0,0,1-3.3,4.5,20.9,20.9,0,0,1-4.3,3.4,20.6,20.6,0,0,1-5.1,2.2,20.9,20.9,0,0,1-25-11.9A20.7,20.7,0,0,1,0,21.1,21.4,21.4,0,0,1,1.6,13,21,21,0,0,1,5.8,6.3a20,20,0,0,1,6.5-4.5A19.8,19.8,0,0,1,20.4.1a22.6,22.6,0,0,1,5.8.7,22.3,22.3,0,0,1,4.1,1.5,15.1,15.1,0,0,1,3.3,2.1Z"/><path class="cls-2" d="M44.2,1.1H57.7v40H44.2V1.1Z"/><path class="cls-2" d="M74.1,1.1l6.8,17.4L87.7,1.1h14l-15.6,40H75.7L60.1,1.1h14Z"/><path class="cls-2" d="M104.1,1.1h23.6V11.6H116.8V16h10.6V26H116.8v4.6H128V41.1h-24V1.1Z"/><path class="cls-2" d="M146.6,1.1h13.5v40H146.6V1.1Z"/><path class="cls-2" d="M171.1,11.6h-7.4V1.1h27.9V11.6h-7.4V41.1H171.1V11.6Z"/><path class="cls-2" d="M220.6,1.1h9.6l15.2,40H232.8l-1.3-3.6H219.4l-1.3,3.6H205.5Zm7.5,27.6-2.7-7-2.7,7h5.4Z"/><path class="cls-1" d="M276.8,57.2h24.8V46.8L290.4,35.6V30.5a21.1,21.1,0,0,0,4,5.6l16,16a21.3,21.3,0,0,0,6.7,4.5,21.1,21.1,0,0,0,16.4,0,21.3,21.3,0,0,0,6.7-4.5,20.9,20.9,0,0,0,2.6-3.2l8.4,8.4h16.4a20.1,20.1,0,0,0,6.1-.9,12.9,12.9,0,0,0,4.6-2.5,11.1,11.1,0,0,0,2.3-2.8l6.2,6.2h12.6v-10l-1.5-1.6L400,16.8,384.1,1H370.4l1,13.2-9.5-9.7-1-.9a14.1,14.1,0,0,0-4.5-2.1,21.1,21.1,0,0,0-3.7-.6H335.3V17.4l-11-11.2a21.8,21.8,0,0,0-6.8-4.5A20.6,20.6,0,0,0,309.3,0a20.2,20.2,0,0,0-8.1,1.7,21.4,21.4,0,0,0-6.7,4.5,21,21,0,0,0-4.5,6.7,23.6,23.6,0,0,0-1,2.9L274.5,1H261.1V41.2"/><path class="cls-2" d="M261.1,1h13.4V30.7h11.1V41.2H261.1V1Z"/><path class="cls-2" d="M288.3,21.1a20.5,20.5,0,0,1,1.7-8.2A21.1,21.1,0,0,1,301.2,1.7a21.1,21.1,0,0,1,16.4,0,21.1,21.1,0,0,1,11.2,11.2,20.6,20.6,0,0,1,1.7,8.2,20.6,20.6,0,0,1-1.7,8.2,21.1,21.1,0,0,1-11.2,11.2,21.1,21.1,0,0,1-16.4,0,21.1,21.1,0,0,1-11.2-11.2A20.5,20.5,0,0,1,288.3,21.1Zm12.7,0a8.2,8.2,0,0,0,.7,3.3,8.5,8.5,0,0,0,4.5,4.5,8.5,8.5,0,0,0,6.6,0,8.5,8.5,0,0,0,4.5-4.5,8.5,8.5,0,0,0,0-6.6,8.5,8.5,0,0,0-4.5-4.5,8.5,8.5,0,0,0-6.6,0,8.5,8.5,0,0,0-4.5,4.5A8.2,8.2,0,0,0,300.9,21.1Z"/><path class="cls-2" d="M335.3,1h15.7a20.7,20.7,0,0,1,5.5.7,12.5,12.5,0,0,1,4.3,2.1,9.4,9.4,0,0,1,2.8,3.4,10.6,10.6,0,0,1,1,4.7,9.9,9.9,0,0,1-.5,3.3,12.7,12.7,0,0,1-1,2.3,7.5,7.5,0,0,1-1.5,1.8,10.2,10.2,0,0,1,2.4,2.2,13,13,0,0,1,1.7,2.9,10.8,10.8,0,0,1,.8,4.3,13,13,0,0,1-1,5.2,11.2,11.2,0,0,1-2.9,4,12.9,12.9,0,0,1-4.6,2.5,20.1,20.1,0,0,1-6.1.9H335.3V1Zm16.9,12.2q0-2.8-3-2.8h-1.4V16h1.4Q352.2,16,352.2,13.2Zm-3,18.5q4.6,0,4.6-3.5t-4.6-3.5h-1.4v7h1.4Z"/><path class="cls-2" d="M370.4,1h13.8l-2.1,28.3h-9.6Zm0.4,30.2h12.9V41.2H370.8V31.1Z"/></svg>