<svg id="Layer_1" data-name="Layer 1" xmlns="http://www.w3.org/2000/svg" viewBox="0 0 90 87.9"><defs><style>.cls-1{fill:#333;fill-rule:evenodd;}</style></defs><title>icon_cup</title><path class="cls-1" d="M87.7,21.7c-3.2-3.7-8-5.4-13.5-4.8V10.5a9.4,9.4,0,0,0-9.4-9.4H27.2a9.4,9.4,0,0,0-9.4,9.4v6.4C12.2,16.3,7.4,18,4.3,21.7A14.1,14.1,0,0,0,2.3,36.7C5,42.5,10.9,46,18.7,46.5,21.6,59,31.1,68.5,42.9,69.9V82.7H36.6a3.1,3.1,0,0,0,0,6.3H55.4a3.1,3.1,0,0,0,0-6.3H49.1V69.9C60.9,68.5,70.5,59,73.3,46.5c7.8-.6,13.7-4,16.3-9.8A14.1,14.1,0,0,0,87.7,21.7ZM8,34.1a7.8,7.8,0,0,1,1-8.4c1.9-2.2,5-3.1,8.7-2.6V38.7c0,0.5,0,.9.1,1.4C13.1,39.5,9.6,37.4,8,34.1ZM68,13.6V38.7c0,13.9-9.8,25.1-22,25.1S24,52.6,24,38.7V10.5a3.1,3.1,0,0,1,3.1-3.1H64.8A3.1,3.1,0,0,1,68,10.5v3.1ZM84,34.1c-1.5,3.3-5,5.4-9.8,6,0-.5.1-0.9,0.1-1.4V23.2c3.7-.6,6.8.3,8.7,2.6A7.8,7.8,0,0,1,84,34.1Z" transform="translate(-1 -1.1)"/></svg>